<?xml version="1.0" standalone="no"?>
<!DOCTYPE svg PUBLIC "-//W3C//DTD SVG 20010904//EN"
 "http://www.w3.org/TR/2001/REC-SVG-20010904/DTD/svg10.dtd">
<svg version="1.0" xmlns="http://www.w3.org/2000/svg"
 width="968.000000pt" height="968.000000pt" viewBox="0 0 968.000000 968.000000"
 preserveAspectRatio="xMidYMid meet">
<metadata>
Created by potrace 1.11, written by Peter Selinger 2001-2013
</metadata>
<g transform="translate(0.000000,968.000000) scale(0.100000,-0.100000)"
fill="#000000" stroke="none">
<path d="M1447 9673 c-4 -4 -18 -8 -30 -10 -99 -14 -245 -131 -301 -242 -60
-118 -56 261 -56 -4793 l0 -4629 2297 4 c1264 2 2318 6 2343 10 25 3 83 9 130
13 87 7 118 10 180 18 19 3 54 7 78 10 37 5 94 14 189 31 16 3 44 8 63 11 19
3 73 15 120 25 107 25 103 24 175 44 33 9 66 17 73 17 6 1 12 5 12 10 0 5 4 7
9 3 9 -5 248 72 308 100 17 8 33 15 36 15 2 0 26 10 53 22 27 12 51 23 54 23
27 7 273 137 300 159 8 7 32 21 53 31 20 11 37 23 37 27 0 5 7 8 15 8 8 0 15
4 15 8 0 5 12 14 27 21 15 7 33 21 41 32 7 10 18 19 23 19 24 0 228 184 327
293 76 85 182 222 182 236 0 5 3 11 8 13 22 9 139 217 196 348 16 36 34 79 42
95 25 57 86 250 99 315 2 8 4 15 5 15 2 0 8 23 15 60 3 17 8 41 11 55 12 50
20 98 41 235 9 56 14 765 6 778 -4 6 -8 23 -9 36 -4 38 -41 202 -51 231 -4 8
-7 20 -9 27 -9 47 -84 254 -96 268 -4 5 -8 17 -8 26 0 9 -7 22 -15 29 -9 7
-13 15 -11 18 5 5 -39 98 -57 121 -6 7 -12 18 -13 25 -1 6 -25 49 -53 96 -70
114 -74 121 -88 139 -6 9 -37 50 -67 91 -87 118 -187 231 -285 324 -105 99
-116 109 -151 135 -19 14 -37 28 -40 31 -46 47 -253 179 -390 248 -144 73
-148 76 -152 105 -4 23 20 77 34 77 5 0 38 18 74 40 36 22 70 40 74 40 5 0 10
3 12 8 2 4 26 22 53 41 125 86 319 273 400 385 11 16 25 33 31 40 20 22 124
183 124 193 0 6 7 16 15 23 8 7 13 16 10 20 -3 5 0 12 6 15 10 7 99 187 99
201 0 3 6 20 14 37 8 18 27 70 42 117 14 47 29 92 32 100 7 20 9 29 16 65 3
17 10 45 15 63 5 18 10 35 10 37 -1 5 10 71 17 109 25 136 25 649 -1 806 -2
14 -7 45 -10 70 -11 79 -36 224 -41 231 -2 4 -6 20 -8 36 -3 27 -33 144 -44
173 -3 8 -6 17 -7 20 0 3 -9 32 -20 65 -10 33 -19 62 -20 65 -14 44 -109 255
-117 258 -4 2 -8 8 -8 13 0 8 -46 90 -103 184 -18 30 -137 186 -166 219 -64
71 -162 166 -226 219 -102 85 -104 87 -114 87 -5 0 -11 4 -13 8 -5 14 -170
117 -268 169 -78 41 -246 115 -345 153 -73 28 -91 35 -100 36 -5 1 -37 10 -70
20 -33 10 -64 19 -70 20 -5 2 -37 10 -70 19 -33 9 -69 18 -80 20 -11 2 -49 11
-85 19 -69 15 -110 23 -175 32 -22 3 -46 7 -53 9 -7 3 -40 7 -75 11 -61 6 -92
11 -92 14 0 1 -20 3 -45 5 -143 12 -190 17 -235 22 -75 8 -4090 15 -4098 6z"/>
</g>
</svg>
