<svg id="Layer_1" data-name="Layer 1" xmlns="http://www.w3.org/2000/svg" viewBox="0 0 66.61 58.61"><defs><style>.cls-1{fill:#ff8533;}</style></defs><path class="cls-1" d="M39.94,11.59a11.68,11.68,0,0,1,5.42,8.66,9.4,9.4,0,1,0-5.42-8.66ZM33.78,30.84a9.4,9.4,0,1,0-9.4-9.4,9.4,9.4,0,0,0,9.4,9.4Zm4,.64h-8a12.05,12.05,0,0,0-12,12v9.76l0,.15.67.21a54.77,54.77,0,0,0,16.37,2.64c8.84,0,14-2.52,14.29-2.68l.62-.32h.07V43.52a12,12,0,0,0-12-12Zm15.55-9.7H45.41a11.61,11.61,0,0,1-3.58,8.07A14.3,14.3,0,0,1,52.05,43.54v3c7.81-.28,12.32-2.5,12.61-2.65l.63-.32h.07V33.81a12.05,12.05,0,0,0-12-12Zm-36-.64a9.38,9.38,0,0,0,5-1.45,11.66,11.66,0,0,1,4.38-7.43c0-.17,0-.34,0-.52a9.4,9.4,0,1,0-9.4,9.4Zm8.45,8.71a11.6,11.6,0,0,1-3.58-8c-.29,0-.58,0-.88,0h-8a12.05,12.05,0,0,0-12,12v9.76l0,.15.67.22a56.69,56.69,0,0,0,13.56,2.54V43.54A14.29,14.29,0,0,1,25.73,29.85Zm0,0"/></svg>