<?xml version="1.0" encoding="utf-8"?>
<!-- Generator: Adobe Illustrator 24.1.0, SVG Export Plug-In . SVG Version: 6.00 Build 0)  -->
<svg version="1.1" id="Layer_1" xmlns="http://www.w3.org/2000/svg" xmlns:xlink="http://www.w3.org/1999/xlink" x="0px" y="0px"
	 viewBox="0 0 66.6 58.6" style="enable-background:new 0 0 66.6 58.6;" xml:space="preserve">
<style type="text/css">
	.st0{fill:#FF8533;}
</style>
<g>
	<path class="st0" d="M30.8,0.5c-1.9,0-3.8,0.7-5.3,2.1c-3.3,3.1-3.3,8.2-0.2,11.4l12.2,12.2l12.2-12.2c3.2-3.2,3.1-8.3-0.2-11.4
		c-1.5-1.4-3.4-2.1-5.3-2.1c-2.2,0-4.3,0.9-6,2.5l-0.7,0.7L36.8,3C35.2,1.3,33,0.5,30.8,0.5z"/>
	<path class="st0" d="M22.7,30.4c-3.5,0-6.7,1.4-8.8,3.6L2.4,45.3l12.8,12.8l4.3-4.3h21.6c2.2,0,4.2-0.8,5.8-2.2l14.6-16.4
		c0.9-0.8,0.8-2.3-0.1-2.9c-1.9-1.3-4.1-0.9-6,0.2c-1.9,1.1-13.1,10.7-13.1,10.7l-11,0c-0.5,0-1.1-0.6-1.1-1.1
		c0-0.6,0.5-1.1,1.1-1.1H38c2.4,0,5-1.5,5-4.3c0-2.9-2.6-4.3-5-4.3c-4.1,0-4.9,0-4.9,0c-1.6,0-3.3-0.1-4.6-0.8
		C26.8,30.9,24.8,30.4,22.7,30.4z"/>
</g>
</svg>
