<svg id="Layer_1" data-name="Layer 1" xmlns="http://www.w3.org/2000/svg" viewBox="0 0 66.6 58.6"><defs><style>.cls-1{fill:#ff8533;}</style></defs><path class="cls-1" d="M58,51.79H43.29V48.22H56.87l-2.15-6.55H44.48A67.85,67.85,0,0,0,36,50.79L33.3,54.52l-2.72-3.73a67.64,67.64,0,0,0-8.46-9.12H11.88c0,.06-1,3.1-2.15,6.55H23.31v3.57H8.56c-1.08,3.28-2,6.1-2,6.19H60.07c0-.08-1-2.91-2-6.19Zm0,0"/><path class="cls-1" d="M33.3,48.81c8.1-11.1,19.63-15.38,19.63-28.55A19.14,19.14,0,0,0,33.3.62,19.14,19.14,0,0,0,13.67,20.26c0,13.16,11.53,17.45,19.63,28.55Zm0-33.17A5.36,5.36,0,1,1,28,21a5.36,5.36,0,0,1,5.35-5.35Zm0,0"/></svg>