<?xml version="1.0" encoding="utf-8"?>
<!-- Generator: Adobe Illustrator 24.1.0, SVG Export Plug-In . SVG Version: 6.00 Build 0)  -->
<svg version="1.1" id="Layer_1" xmlns="http://www.w3.org/2000/svg" xmlns:xlink="http://www.w3.org/1999/xlink" x="0px" y="0px"
	 viewBox="0 0 66.6 58.6" style="enable-background:new 0 0 66.6 58.6;" xml:space="preserve">
<style type="text/css">
	.st0{fill:#FF8533;}
</style>
<g>
	<path class="st0" d="M12.2,16.1c0.3,0,0.5-0.1,0.7-0.3l4.2-4.2c0.4-0.4,0.4-1.1,0-1.5c-0.4-0.4-1.1-0.4-1.5,0l-4.2,4.2
		c-0.3,0.3-0.4,0.8-0.2,1.2C11.3,15.8,11.7,16.1,12.2,16.1L12.2,16.1z M12.2,16.1"/>
	<path class="st0" d="M11.4,22.1c0.4,0.4,1.1,0.4,1.5,0l10.6-10.6c0.4-0.4,0.4-1.1,0-1.5c-0.4-0.4-1.1-0.4-1.5,0L11.4,20.6
		C11,21,11,21.7,11.4,22.1L11.4,22.1z M11.4,22.1"/>
	<path class="st0" d="M56.2,43.5c4.2-3.6,5.7-9.4,3.8-14.6c-1.9-5.2-6.9-8.6-12.4-8.6c-5.5,0-10.5,3.4-12.4,8.6
		c-1.9,5.2-0.4,11,3.8,14.6c-5.3,1.9-8.8,6.9-8.8,12.5v1.3c0,0.6,0.5,1.1,1.1,1.1H64c0.6,0,1.1-0.5,1.1-1.1V56
		C65,50.4,61.5,45.5,56.2,43.5L56.2,43.5z M36.5,33.5c0-6.1,5-11.1,11.1-11.1c6.1,0,11.1,5,11.1,11.1c0,6.1-5,11.1-11.1,11.1
		C41.4,44.6,36.5,39.7,36.5,33.5L36.5,33.5z M62.9,56.3h-6.3v-2.1c0-0.6-0.5-1.1-1.1-1.1c-0.6,0-1.1,0.5-1.1,1.1v2.1H40.7v-2.1
		c0-0.6-0.5-1.1-1.1-1.1c-0.6,0-1.1,0.5-1.1,1.1v2.1h-6.3V56c0.1-5.3,3.7-9.8,8.9-11c4,2.3,8.9,2.3,12.9,0c5.1,1.2,8.8,5.7,8.9,11
		V56.3z M62.9,56.3"/>
	<path class="st0" d="M61.8,0.2H44.9c-1.8,0-3.2,1.4-3.2,3.2v2.1H10c-1.8,0-3.2,1.4-3.2,3.2v27.2L1.8,43c-0.1,0.2-0.2,0.4-0.2,0.6
		v3.2c0,2.3,1.9,4.2,4.2,4.2h22.3c0.6,0,1.1-0.5,1.1-1.1s-0.5-1.1-1.1-1.1H5.8c-1.2,0-2.1-0.9-2.1-2.1v-2.1h15.4l1.8,1.8
		c0.2,0.2,0.5,0.3,0.7,0.3h9c0.6,0,1.1-0.5,1.1-1.1s-0.5-1.1-1.1-1.1h-8.5l-1.3-1.3l0.6-1.8h11.3c0.6,0,1.1-0.5,1.1-1.1
		s-0.5-1.1-1.1-1.1H20.6c-0.5,0-0.9,0.3-1,0.7l-0.8,2.4H4.7l3.8-5.3h22.7c0.6,0,1.1-0.5,1.1-1.1c0-0.6-0.5-1.1-1.1-1.1h-5.3v-2.6
		c0-0.6-0.5-1.1-1.1-1.1c-0.6,0-1.1,0.5-1.1,1.1v2.6h-2.1v-2.7c0-2.3,1.5-4.4,3.7-5.1c3.4,1.9,7.7,0.9,9.8-2.3
		c2.2-3.2,1.6-7.5-1.5-10c-3-2.4-7.4-2.2-10.1,0.6c-2.7,2.8-2.7,7.2-0.2,10.1c-2.5,1.3-4,3.8-4,6.6v2.7H9V8.7C9,8.1,9.5,7.6,10,7.6
		h31.7v2.9l-3,4.4c-0.4,0.6-0.5,1.5-0.1,2.2c0.4,0.7,1.1,1.1,1.9,1.1h21.3c1.8,0,3.2-1.4,3.2-3.2V3.4C65,1.6,63.6,0.2,61.8,0.2
		L61.8,0.2z M29.1,15.6c2.9,0,5.3,2.4,5.3,5.3c0,2.9-2.4,5.3-5.3,5.3c-2.9,0-5.3-2.4-5.3-5.3C23.8,17.9,26.2,15.6,29.1,15.6
		L29.1,15.6z M62.9,15c0,0.6-0.5,1.1-1.1,1.1H40.6l3.1-4.7c0.1-0.2,0.2-0.4,0.2-0.6V3.4c0-0.6,0.5-1.1,1.1-1.1h16.9
		c0.6,0,1.1,0.5,1.1,1.1V15z M62.9,15"/>
	<path class="st0" d="M58.7,5.5H48.1C47.5,5.5,47,6,47,6.6c0,0.6,0.5,1.1,1.1,1.1h10.6c0.6,0,1.1-0.5,1.1-1.1
		C59.7,6,59.3,5.5,58.7,5.5L58.7,5.5z M58.7,5.5"/>
	<path class="st0" d="M58.7,10.8H48.1c-0.6,0-1.1,0.5-1.1,1.1c0,0.6,0.5,1.1,1.1,1.1h10.6c0.6,0,1.1-0.5,1.1-1.1
		C59.7,11.3,59.3,10.8,58.7,10.8L58.7,10.8z M58.7,10.8"/>
</g>
</svg>
