<svg xmlns="http://www.w3.org/2000/svg" viewBox="0 0 68 77.33"><defs><style>.cls-1{opacity:0.5;}.cls-2{fill:#c9d4f1;}.cls-3{fill:#5e72a1;}</style></defs><g id="Layer_2" data-name="Layer 2"><g id="Layer_1-2" data-name="Layer 1"><g class="cls-1"><g class="cls-1"><rect class="cls-2" width="61.04" height="61.04" rx="28.57"/></g></g><path class="cls-3" d="M12.71,74.75l1.75-.35,2-.41,2.43-.5a1,1,0,0,0-.4-1.95L13.31,72.6V52l4.86-.72a12.71,12.71,0,0,1,7.07,1l12.31,5.46a1.06,1.06,0,0,0,.36.09l7.59.31a1.85,1.85,0,0,1-.21,3.69l-6.74.88-10.81.12a1,1,0,0,0-1,1,1,1,0,0,0,1,1h0l10.71-.12,9.86,3a.94.94,0,0,0,.62,0l14.14-5A2.21,2.21,0,0,1,65.87,64a2,2,0,0,1,.14.76,2.13,2.13,0,0,1-1.37,2l-21.22,8a7.22,7.22,0,0,1-2.51.48l-8,.15a14.19,14.19,0,0,1-4.84-.73l-4.44-1.49A1,1,0,1,0,23,75l4.44,1.48a16,16,0,0,0,5.14.84l8.37-.15a9.35,9.35,0,0,0,3.18-.61l21.23-8a4.1,4.1,0,0,0,2.38-5.3h0a4.18,4.18,0,0,0-2.8-2.54,4,4,0,0,0,.1-3.13,4.12,4.12,0,0,0-5.3-2.39l-.39.14a4,4,0,0,0-2.07-2.1,4.1,4.1,0,0,0-3.15-.1l-8,3c-.11,0-.42-.08-7.91-.39L26.05,50.39a14.73,14.73,0,0,0-6-1.27V34.84H41.93a1,1,0,0,0,0-2H18.18a.53.53,0,0,1-.53-.53v-5.2a.53.53,0,0,1,.53-.53H50a.53.53,0,0,1,.53.53v5.2a.53.53,0,0,1-.53.53H46.71a1,1,0,0,0,0,2h1.37V50.27a.53.53,0,0,1-.53.53H33.26a1,1,0,0,0,0,2H47.55a2.52,2.52,0,0,0,2.52-2.51V34.83a2.51,2.51,0,0,0,2.42-2.51v-5.2A2.52,2.52,0,0,0,50,24.6H45V21.87a2.79,2.79,0,0,0-2.79-2.79h-1a3.19,3.19,0,0,0-3-2.19h-8.3a3.17,3.17,0,0,0-3,2.19h-1a2.79,2.79,0,0,0-2.79,2.79V24.6H18.18a2.52,2.52,0,0,0-2.52,2.52v5.2a2.52,2.52,0,0,0,2.43,2.51V49.25L1,51.8a1,1,0,0,0-.85,1V76.1a1,1,0,0,0,1.2,1l2.55-.52ZM29.93,18.88h8.29a1.19,1.19,0,1,1,0,2.38H29.93a1.19,1.19,0,0,1,0-2.38Zm-4.81,3a.8.8,0,0,1,.8-.8h1a3.19,3.19,0,0,0,3,2.18h8.3a3.18,3.18,0,0,0,3-2.18h1a.81.81,0,0,1,.81.8V24.6H25.12ZM9.51,73.38V52.54l1.81-.27V73l-.84.17Zm-2,.4-5.39,1.1V53.64l5.39-.8ZM54.83,55a2.12,2.12,0,0,1,1.62,0,2.09,2.09,0,0,1,1,1L49,59.23a3.84,3.84,0,0,0-.78-1.75ZM48.6,65.67,43.27,64l2.19-.29a3.75,3.75,0,0,0,3.31-2.28l11.66-4.41a2.12,2.12,0,0,1,1.86,3.79Z"/><path class="cls-3" d="M32.19,48.52H36a1,1,0,0,0,1-1V45.91h1.61a1,1,0,0,0,1-1V41.14a1,1,0,0,0-1-1H37V38.53a1,1,0,0,0-1-1H32.19a1,1,0,0,0-1,1v1.62H29.58a1,1,0,0,0-1,1v3.77a1,1,0,0,0,1,1H31.2v1.61a1,1,0,0,0,1,1Zm-2.13-4.47V42h1.85a1.14,1.14,0,0,0,1.14-1.14V39H35.1v1.85A1.14,1.14,0,0,0,36.24,42H38.1v2H36.24a1.14,1.14,0,0,0-1.14,1.14v1.86H33.05V45.19a1.14,1.14,0,0,0-1.14-1.14Z"/><path class="cls-3" d="M56.84,36.9h.84v.84a1,1,0,1,0,2,0V36.9h.84a1,1,0,0,0,0-2h-.84v-.84a1,1,0,1,0-2,0v.84h-.84a1,1,0,0,0,0,2Z"/><path class="cls-3" d="M55.18,47.41a1,1,0,1,0-1-1,1,1,0,0,0,1,1Z"/></g></g></svg>