<svg xmlns="http://www.w3.org/2000/svg" viewBox="0 0 68 77.33"><defs><style>.cls-1{opacity:0.5;}.cls-2{fill:#fdeed0;}.cls-3{fill:#907b50;}</style></defs><g id="Layer_2" data-name="Layer 2"><g id="Layer_1-2" data-name="Layer 1"><g class="cls-1"><g class="cls-1"><rect class="cls-2" width="61.04" height="61.04" rx="28.57"/></g></g><path class="cls-3" d="M68,66.92c-.13-8.22-8.53-10.64-14.67-12.41l-2-.61V50.51a12.07,12.07,0,0,0,3.24-3h3.73a3.32,3.32,0,0,0,3.32-3.32v-4a4.31,4.31,0,0,0,.34-1.68V37.28a4.24,4.24,0,0,0-.34-1.68V33.53a16.64,16.64,0,1,0-33.27,0v2a.06.06,0,0,0,0,0,4.21,4.21,0,0,0-.36,1.7v1.25a4.28,4.28,0,0,0,4.28,4.27h1a12,12,0,0,0,5.38,7.71V53.9l-2.05.61C30.42,56.28,22,58.7,21.89,66.92v9.23a1.17,1.17,0,0,0,1.18,1.18h3.5a1.18,1.18,0,0,0,0-2.36H24.25V67c.05-2.87,1.36-5,4.14-6.76a26.37,26.37,0,0,1,6.28-2.66l2.85,5.55a1.19,1.19,0,0,0,1.71.44l1.27-.85,1.1,4.1L39.72,75H37.17a1.18,1.18,0,0,0,0,2.36H66.82A1.18,1.18,0,0,0,68,76.15V66.92ZM52.68,56.77l.23.07-2,4-3.82-2.57,3.24-2.19c.75.24,1.55.47,2.39.71Zm-7.74,2.9,2.37,1.6-1.14,4.3H43.72l-1.15-4.3Zm0-2.85-4-2.68V51.65a12,12,0,0,0,8,0v2.49Zm9.62-23.08-.05,0c-2.42-1.54-4.51-2.87-7.79-1.93l-.09,0-1.94.74C41,34,38.92,34.77,35.33,34.67v-1a9.62,9.62,0,1,1,19.23,0Zm4.65,10.48a.94.94,0,0,1-1,1H55.91a11.71,11.71,0,0,0,.76-2.37h1a4.15,4.15,0,0,0,1.58-.3v1.72Zm.35-5.69a1.92,1.92,0,0,1-1.92,1.91h-.72V35.36h.72a1.92,1.92,0,0,1,1.92,1.92ZM32.24,40.44a1.91,1.91,0,0,1-1.91-1.91V37.28a1.91,1.91,0,0,1,1.91-1.92H33s0,5,0,5.08ZM33,33h-.75a4.25,4.25,0,0,0-1.56.3,14.27,14.27,0,0,1,28.53,0,4.26,4.26,0,0,0-1.57-.3H56.9A12,12,0,0,0,33,33Zm2.41,8.5h0a8.72,8.72,0,0,1-.07-1.14V37c4,.09,6.44-.83,10.21-2.28L47.41,34c2.23-.62,3.52.2,5.83,1.67l1.32.83v3.83a9.56,9.56,0,0,1-1.3,4.81H44.94a1.19,1.19,0,0,0,0,2.37h6.39a9.61,9.61,0,0,1-15.93-6ZM39,60.82l-2-4,.24-.07c.83-.24,1.63-.47,2.38-.71l3.24,2.19ZM42.15,75l1.6-7h2.38l1.61,7Zm23.49,0H50.16l-1.87-8.2,1.09-4.11,1.28.86a1.19,1.19,0,0,0,1.71-.44l2.85-5.55a26.72,26.72,0,0,1,6.28,2.66c2.77,1.74,4.09,3.89,4.14,6.76v8Z"/><path class="cls-3" d="M61,69.07H55a1.18,1.18,0,1,0,0,2.36H61a1.18,1.18,0,0,0,0-2.36Z"/><path class="cls-3" d="M31.87,75a1.18,1.18,0,0,0,0,2.36h0a1.18,1.18,0,1,0,0-2.36Z"/></g></g></svg>