<svg id="Layer_1" enable-background="new 0 0 510 510" height="512" viewBox="0 0 510 510" width="512" xmlns="http://www.w3.org/2000/svg"><g><path d="m501.564 190.824c-29.36-112.375-130.686-190.824-246.564-190.824-115.869 0-217.188 78.438-246.556 190.801-4.061 12.787-8.444 38.079-8.444 64.199v188.027l6.68 4.453c32.23 21.486 73.769 24.066 108.346 6.776l6.683-3.307c70.141 77.323 190.801 78.755 262.831 4.018l9.677 3.87c35.925 14.371 76.722 10.229 109.104-11.36l6.68-4.453v-188.024c-.001-26.316-4.471-51.67-8.437-64.176zm-246.564-160.824c95.777 0 180.292 60.771 211.885 150-37.645 0-119.641 0-151.71 0-37.935-.933-73.561-34.943-92.059-68.278l-11.784-21.234-13.712 20.042c-28.293 41.355-75.958 68.511-129.753 69.47h-24.753c31.595-89.229 116.109-150 211.886-150zm-225 396.505v-171.505c0-15.64 1.652-30.98 4.518-45 33.887-.114 31.486.22 40.482-.245v120.245c0 34.324 9.891 67.929 28.16 96.656l-1.496.74c-22.7 11.351-49.5 10.875-71.664-.891zm225 53.495c-83.719 0-150-68.034-150-150v-124.154c40.35-8.564 76.862-30.031 103.803-60.853 23.43 32.484 61.191 64.015 105.865 65.003l90.332.004v120c0 82.09-66.406 150-150 150zm225-53.445c-22.858 12.468-50.217 14.201-74.642 4.431l-1.071-.429c19.899-29.563 30.713-64.666 30.713-100.557v-120h40.482c2.862 14.008 4.518 29.348 4.518 45z"/><path d="m225 315h-30c0 8.272-6.729 15-15 15s-15-6.728-15-15h-30c0 24.814 20.186 45 45 45s45-20.186 45-45z"/><path d="m330 330c-8.272 0-15-6.728-15-15h-30c0 24.814 20.186 45 45 45s45-20.186 45-45h-30c0 8.272-6.728 15-15 15z"/><path d="m188.872 402.772 12.256 27.383c30.242-13.536 77.47-13.55 107.744 0l12.256-27.383c-38.066-17.037-94.251-17.01-132.256 0z"/><path d="m148.783 247.5h47.434v30h-47.434z" transform="matrix(.949 -.316 .316 .949 -74.154 68.016)"/><path d="m322.5 238.783h30v47.434h-30z" transform="matrix(.316 -.949 .949 .316 -18.256 499.671)"/></g></svg>