<?xml version="1.0" encoding="utf-8"?>
<!-- Generator: Adobe Illustrator 24.1.0, SVG Export Plug-In . SVG Version: 6.00 Build 0)  -->
<svg version="1.1" id="Layer_1" xmlns="http://www.w3.org/2000/svg" xmlns:xlink="http://www.w3.org/1999/xlink" x="0px" y="0px"
	 viewBox="0 0 94.5 120.8" style="enable-background:new 0 0 94.5 120.8;" xml:space="preserve">
<style type="text/css">
	.st0{fill:#FFFFFF;}
	.st1{fill:#FF6600;}
</style>
<path class="st0" d="M17.4,10.1c0.7,0,58.6,0,58.6,0l-4.4,59.8l12,14.9l0.9,15.3l-54.9,20.7H0V10.1H17.4z"/>
<path class="st1" d="M76.3,58.4c-0.5-0.2-0.7-0.7-0.5-1.2c0.1-0.2,0.2-0.3,0.4-0.4c7.9-4.1,13.3-13.1,13.3-23.3
	C89.6,8.8,73.7,0,50.3,0H6C2.7,0,0,2.7,0,6v112.3c0,1.4,1.1,2.5,2.5,2.5l0,0c6.5,0,12.8-2.2,17.9-6.2s8.7-9.6,10.3-15.9
	c1-4.1,1.5-8.3,1.5-12.6c0-17.9-13.5-25.8-21.6-28.9c-0.3-0.1-0.5-0.5-0.4-0.8s0.4-0.4,0.6-0.4c36.4,1.8,50.5-23,54.1-31.2
	c0.2-0.4,0.7-0.6,1.2-0.4c0.2,0.1,0.4,0.3,0.5,0.6c10.3,50.1-18.9,79.8-37.8,93.3c-0.6,0.4-0.7,1.3-0.3,1.9c0.3,0.4,0.7,0.6,1.1,0.6
	h22.8c21.8,0,42.3-8.1,42.3-35C94.5,73.7,86.2,62.7,76.3,58.4z M44,30.5c-1,7.7-8.1,13.2-15.8,12.1c-7.7-1-13.2-8.1-12.1-15.8
	c0.8-6.3,5.8-11.3,12.1-12.1C36,13.7,43,19.2,44,27C44.1,28.1,44.1,29.3,44,30.5z M82.4,94.8c0,0.3-0.2,0.5-0.5,0.5l0,0H78
	c-0.3,0-0.5,0.2-0.5,0.5l0,0v3.8c0,0.3-0.3,0.5-0.6,0.5h-4.6c-0.3,0-0.5-0.2-0.5-0.5l0,0v-3.8c0-0.3-0.2-0.5-0.5-0.5l0,0h-3.8
	c-0.3,0-0.5-0.2-0.5-0.5l0,0v-4.7c0-0.3,0.2-0.5,0.5-0.5l0,0h3.8c0.3,0,0.5-0.2,0.5-0.5v-3.8c0-0.3,0.2-0.5,0.5-0.5l0,0H77
	c0.3,0,0.5,0.2,0.6,0.5V89c0,0.3,0.2,0.5,0.5,0.5h3.8c0.3,0,0.5,0.2,0.5,0.5l0,0V94.8z"/>
</svg>
