<?xml version="1.0" encoding="utf-8"?>
<!-- Generator: Adobe Illustrator 24.1.0, SVG Export Plug-In . SVG Version: 6.00 Build 0)  -->
<svg version="1.1" id="Layer_1" xmlns="http://www.w3.org/2000/svg" xmlns:xlink="http://www.w3.org/1999/xlink" x="0px" y="0px"
	 viewBox="0 0 637.2 120.8" style="enable-background:new 0 0 637.2 120.8;" xml:space="preserve">
<style type="text/css">
	.st0{fill:#FFFFFF;}
</style>
<g id="Layer_2_1_">
	<g id="Layer_1-2">
		<path class="st0" d="M162.7,49.9v7.2c-3.5-4.7-10.9-8.7-21-8.7c-21.9,0-34.7,16.2-34.7,36.1s12.8,36.1,34.7,36.1
			c9.8,0,18.1-4.5,21-8.4v6.9h18.6V49.9H162.7z M144.4,104c-11.6,0-19-8.6-19-19.5c0-11.3,7-19.6,19-19.6c11.7,0,19,8.2,19,19.6
			C163.4,96.6,156.1,104,144.4,104z"/>
		<path class="st0" d="M200,24v95h18.9V24H200z"/>
		<path class="st0" d="M289.2,49.9v7.2c-3.5-4.7-10.9-8.7-21-8.7c-21.9,0-34.7,16.2-34.7,36.1s12.8,36.1,34.7,36.1
			c9.8,0,18.1-4.5,21-8.4v6.9h18.6V49.9H289.2z M271,104c-11.6,0-19-8.6-19-19.5c0-11.3,7-19.6,19-19.6c11.7,0,19,8.2,19,19.6
			C290,96.6,282.7,104,271,104z"/>
		<path class="st0" d="M363.5,48.7c-6.2,0-13.8,2.8-18.5,7.4v-6.2h-18.7v69.1H345V82.5c-0.4-15.1,8.1-18.2,13.2-18.2
			c7.3,0,13.3,3.3,13.3,14v40.9h19.2V78.2C390.8,60.2,383.5,48.7,363.5,48.7z"/>
		<path class="st0" d="M443.6,104.2c-10.9,0-19-8.2-19-19.5s7.9-19.5,18.9-19.5c6.8,0,12.8,3.4,17,10.3l17-6.7
			c-7-13-19.4-20.1-33.9-20.1c-20.6,0-37.6,16.1-37.6,35.9s17.1,36.1,37.7,36.1c15.8,0,26.8-6.8,33.4-20.4l-16-6.3
			C456.7,101.3,450.4,104.2,443.6,104.2z"/>
		<path class="st0" d="M561.3,83.1c-0.6-22.2-18.3-34.3-36.1-34.3c-13,0-37.6,7.5-37.6,36s24.1,36.1,37.6,36.1
			c20.2,0,29.5-12.3,32.3-16.1l-14.6-8.4c-4.4,5.2-10.9,8.2-17.7,8c-3.8,0-16.6-1.3-18.9-12.6h54.6
			C560.9,91.7,561.3,88.4,561.3,83.1z M506.8,78.4c0.8-7,7.4-13.2,18.2-13.2c9.4,0,15.6,6.9,16.3,13.2H506.8z"/>
		<path class="st0" d="M613.7,73.3v-23h-18.6v23h-23.4v17.1h23.4v23h18.6v-23h23.5V73.3H613.7z"/>
		<path class="st0" d="M76.3,58.4c-0.5-0.2-0.7-0.7-0.5-1.2c0.1-0.2,0.2-0.3,0.4-0.4c7.9-4.1,13.3-13.1,13.3-23.3
			C89.6,8.8,73.7,0,50.3,0H6C2.7,0,0,2.7,0,6v112.3c0,1.4,1.1,2.5,2.5,2.5c0,0,0,0,0,0c6.5,0,12.8-2.2,17.9-6.2
			c5.1-4,8.7-9.6,10.3-15.9c1-4.1,1.5-8.3,1.5-12.6c0-17.9-13.5-25.8-21.6-28.9c-0.3-0.1-0.5-0.5-0.4-0.8c0.1-0.3,0.4-0.4,0.6-0.4
			c36.4,1.8,50.5-23,54.1-31.2c0.2-0.4,0.7-0.6,1.2-0.4c0.2,0.1,0.4,0.3,0.5,0.6c10.3,50.1-18.9,79.8-37.8,93.3
			c-0.6,0.4-0.7,1.3-0.3,1.9c0.3,0.4,0.7,0.6,1.1,0.6h22.8c21.8,0,42.3-8.1,42.3-35C94.5,73.7,86.2,62.7,76.3,58.4z M44,30.5
			c-1,7.7-8.1,13.2-15.8,12.1c-7.7-1-13.2-8.1-12.1-15.8c0.8-6.3,5.8-11.3,12.1-12.1C36,13.7,43,19.2,44,27
			C44.1,28.1,44.1,29.3,44,30.5z M82.4,94.8c0,0.3-0.2,0.5-0.5,0.5l0,0H78c-0.3,0-0.5,0.2-0.5,0.5c0,0,0,0,0,0v3.8
			c0,0.3-0.3,0.5-0.6,0.5h-4.6c-0.3,0-0.5-0.2-0.5-0.5l0,0v-3.8c0-0.3-0.2-0.5-0.5-0.5c0,0,0,0,0,0h-3.8c-0.3,0-0.5-0.2-0.5-0.5l0,0
			v-4.7c0-0.3,0.2-0.5,0.5-0.5l0,0h3.8c0.3,0,0.5-0.2,0.5-0.5v-3.8c0-0.3,0.2-0.5,0.5-0.5l0,0H77c0.3,0,0.5,0.2,0.6,0.5V89
			c0,0.3,0.2,0.5,0.5,0.5h3.8c0.3,0,0.5,0.2,0.5,0.5l0,0L82.4,94.8z"/>
	</g>
</g>
</svg>
