<svg xmlns="http://www.w3.org/2000/svg" viewBox="0 0 637.19 120.83"><defs><style>.cls-1{fill:#f60;}</style></defs><g id="Layer_2" data-name="Layer 2"><g id="Layer_1-2" data-name="Layer 1"><path class="cls-1" d="M162.66,49.92v7.16c-3.52-4.65-10.94-8.67-21-8.67-21.88,0-34.7,16.22-34.7,36.08s12.82,36.08,34.7,36.08c9.8,0,18.1-4.52,21-8.42v6.91h18.6V49.92ZM144.42,104c-11.56,0-19-8.55-19-19.49,0-11.32,7-19.62,19-19.62,11.69,0,19,8.18,19,19.62C163.41,96.56,156.11,104,144.42,104Z"/><path class="cls-1" d="M200,24v95h18.85V24Z"/><path class="cls-1" d="M289.24,49.92v7.16c-3.52-4.65-10.94-8.67-21-8.67-21.87,0-34.7,16.22-34.7,36.08s12.83,36.08,34.7,36.08c9.81,0,18.1-4.52,21-8.42v6.91h18.6V49.92ZM271,104c-11.56,0-19-8.55-19-19.49,0-11.32,7-19.62,19-19.62,11.69,0,19,8.18,19,19.62C290,96.56,282.7,104,271,104Z"/><path class="cls-1" d="M363.53,48.66c-6.16,0-13.82,2.77-18.49,7.42V49.92H326.32v69.14H345V82.48c-.37-15.09,8.06-18.23,13.21-18.23,7.29,0,13.32,3.27,13.32,14v40.86h19.24V78.2C390.81,60.22,383.52,48.66,363.53,48.66Z"/><path class="cls-1" d="M443.6,104.22c-10.93,0-19-8.17-19-19.48s7.93-19.49,18.86-19.49c6.79,0,12.82,3.4,17,10.31l17-6.66c-7-13-19.36-20.11-33.94-20.11-20.62,0-37.59,16.08-37.59,35.95s17.1,36.09,37.71,36.09c15.84,0,26.78-6.8,33.44-20.37l-16-6.29C456.67,101.34,450.4,104.22,443.6,104.22Z"/><path class="cls-1" d="M561.26,83.1c-.62-22.24-18.34-34.31-36.07-34.31-13,0-37.59,7.54-37.59,35.95s24.14,36.09,37.59,36.09c20.24,0,29.54-12.33,32.3-16.1l-14.57-8.42a22.35,22.35,0,0,1-17.73,8c-3.77,0-16.6-1.26-18.86-12.57H560.9S561.26,88.39,561.26,83.1Zm-54.43-4.65c.75-7,7.42-13.2,18.24-13.2,9.42,0,15.59,6.92,16.34,13.2Z"/><path class="cls-1" d="M613.69,73.3v-23H595.07v23H571.7V90.4h23.37v23h18.62v-23h23.5V73.3Z"/><path class="cls-1" d="M76.32,58.43a.89.89,0,0,1-.06-1.61c7.92-4.14,13.33-13.13,13.33-23.26C89.59,8.76,73.72,0,50.25,0H6A6,6,0,0,0,0,6V118.35a2.48,2.48,0,0,0,2.48,2.48,28.94,28.94,0,0,0,17.87-6.17A28.81,28.81,0,0,0,30.61,98.8a52.54,52.54,0,0,0,1.53-12.58c0-17.89-13.54-25.77-21.64-28.87a.65.65,0,0,1,.28-1.25c36.44,1.81,50.45-23,54.07-31.21a.87.87,0,0,1,1.63.17c10.26,50.09-18.87,79.8-37.83,93.35a1.33,1.33,0,0,0,.77,2.42H52.24c21.81,0,42.3-8.1,42.3-35C94.54,73.68,86.23,62.73,76.32,58.43ZM44,30.47a14.09,14.09,0,1,1-15.81-15.8A14.17,14.17,0,0,1,44,30.47ZM82.38,94.75a.54.54,0,0,1-.54.54H78a.53.53,0,0,0-.54.53v3.81a.55.55,0,0,1-.55.54H72.28a.54.54,0,0,1-.54-.54V95.82a.53.53,0,0,0-.54-.53H67.39a.54.54,0,0,1-.54-.54V90.06a.54.54,0,0,1,.54-.54H71.2a.54.54,0,0,0,.54-.53V85.18a.54.54,0,0,1,.54-.54H77a.55.55,0,0,1,.55.54V89a.54.54,0,0,0,.54.53h3.8a.54.54,0,0,1,.54.54Z"/></g></g></svg>