<?xml version="1.0" encoding="iso-8859-1"?>
<!-- Generator: Adobe Illustrator 19.0.0, SVG Export Plug-In . SVG Version: 6.00 Build 0)  -->
<svg version="1.1" id="Capa_1" xmlns="http://www.w3.org/2000/svg" xmlns:xlink="http://www.w3.org/1999/xlink" x="0px" y="0px"
	 viewBox="0 0 480 480" style="enable-background:new 0 0 480 480;" xml:space="preserve">
<g>
	<g>
		<path d="M437.632,250.344l-47.08-47.088l-26.16-52.304C354.84,131.856,335.656,120,314.312,120h-20.824
			c11.456-12.752,18.488-29.552,18.488-48c0-39.704-32.296-72-72-72c-39.704,0-72,32.296-72,72c0,18.448,7.032,35.248,18.488,48
			H165.64c-21.344,0-40.528,11.856-50.088,30.952l-26.296,52.584L41.904,258.8c-2.728,3.168-2.536,7.904,0.416,10.856l32,32
			c3.128,3.128,8.184,3.128,11.312,0l56-56c0.496-0.496,0.936-1.072,1.288-1.688l17.056-29.84v88.752L112.28,469.8
			c-0.688,2.416-0.2,5.008,1.304,7.016c1.52,2.008,3.888,3.184,6.392,3.184h72c3.568,0,6.712-2.368,7.696-5.808l40.304-141.072
			L280.28,474.2c0.984,3.432,4.128,5.8,7.696,5.8h72c2.504,0,4.872-1.176,6.392-3.176c1.504-2.008,1.992-4.6,1.304-7.016
			L319.976,302.88v-88.752l17.056,29.84c0.456,0.8,1.04,1.504,1.744,2.104l56,48c3.152,2.712,7.896,2.544,10.856-0.416l32-32
			C440.76,258.528,440.76,253.472,437.632,250.344z M183.976,72c0-30.872,25.128-56,56-56s56,25.128,56,56
			c0,21.12-11.768,39.544-29.08,49.08c-1.968,1.08-4.008,2.04-6.088,2.864c-0.144,0.056-0.296,0.104-0.448,0.16
			c-12.976,4.992-27.792,4.992-40.768,0c-0.144-0.056-0.296-0.104-0.448-0.16c-2.088-0.824-4.12-1.776-6.088-2.864
			C195.744,111.544,183.976,93.12,183.976,72z M399.552,277.104l-49.32-42.272l-31.312-54.8c-1.8-3.16-5.48-4.704-9-3.768
			c-3.504,0.928-5.944,4.112-5.944,7.736v120c0,0.744,0.104,1.488,0.304,2.192L349.368,464h-55.36l-46.336-162.192
			c-0.984-3.44-4.128-5.808-7.696-5.808s-6.712,2.368-7.696,5.808L185.944,464h-55.36l45.088-157.808
			c0.2-0.704,0.304-1.448,0.304-2.192V184c0-3.624-2.44-6.808-5.944-7.736c-3.536-0.928-7.208,0.616-9,3.768l-31.472,55.072
			l-49.584,49.584l-21.104-21.112L102.04,213.2c0.432-0.496,0.792-1.04,1.088-1.624l26.736-53.472
			C136.688,144.472,150.4,136,165.64,136h41.376c0.448,0.232,0.936,0.392,1.392,0.608c1.856,0.912,3.752,1.752,5.688,2.496
			c0.52,0.2,1.04,0.392,1.568,0.576c7.608,2.744,15.768,4.32,24.312,4.32s16.704-1.576,24.312-4.312
			c0.528-0.184,1.048-0.376,1.568-0.576c1.944-0.752,3.84-1.592,5.696-2.504c0.456-0.224,0.936-0.376,1.392-0.608h41.376
			c15.24,0,28.952,8.472,35.776,22.112l26.736,53.472c0.384,0.768,0.888,1.472,1.504,2.08L420.664,256L399.552,277.104z"/>
	</g>
</g>
<g>
	<g>
		<path d="M259.288,224l-11.312-11.312V176h-16v36.688L220.664,224h-20.688v16h24c2.128,0,4.16-0.84,5.656-2.344l10.344-10.344
			l10.344,10.344c1.496,1.504,3.528,2.344,5.656,2.344h24v-16H259.288z"/>
	</g>
</g>
<g>
	<g>
		<path d="M77.512,74.376c-3.848,3.792-7.584,7.72-11.104,11.672l11.968,10.624c3.32-3.752,6.768-7.376,10.352-10.888L77.512,74.376
			z"/>
	</g>
</g>
<g>
	<g>
		<path d="M24.312,154.328c-1.984,4.976-3.816,10.088-5.44,15.2l15.248,4.84c1.504-4.752,3.208-9.504,5.048-14.12L24.312,154.328z"
			/>
	</g>
</g>
<g>
	<g>
		<path d="M38.28,125.296c-2.664,4.672-5.184,9.472-7.496,14.272l14.424,6.936c2.152-4.472,4.496-8.944,6.976-13.288L38.28,125.296z
			"/>
	</g>
</g>
<g>
	<g>
		<path d="M101.112,405.448l-10.28,12.264c4.144,3.48,8.416,6.816,12.688,9.928l9.424-12.936
			C108.952,411.808,104.976,408.696,101.112,405.448z"/>
	</g>
</g>
<g>
	<g>
		<path d="M61.024,360.992l-13.248,8.968c2.984,4.408,6.176,8.792,9.504,13.032l12.584-9.872
			C66.768,369.176,63.792,365.096,61.024,360.992z"/>
	</g>
</g>
<g>
	<g>
		<path d="M56.136,98.472c-3.256,4.208-6.408,8.616-9.392,13.088l13.312,8.872c2.784-4.176,5.728-8.28,8.752-12.2L56.136,98.472z"/>
	</g>
</g>
<g>
	<g>
		<path d="M102,53.472c-4.28,3.176-8.52,6.552-12.6,10.032l10.392,12.168c3.8-3.24,7.752-6.392,11.744-9.344L102,53.472z"/>
	</g>
</g>
<g>
	<g>
		<path d="M45.968,335.072l-14.36,7.048c2.376,4.84,4.928,9.624,7.6,14.216l13.832-8.048
			C50.56,344.024,48.184,339.576,45.968,335.072z"/>
	</g>
</g>
<g>
	<g>
		<path d="M129.168,36.12c-4.664,2.536-9.336,5.288-13.88,8.192l8.608,13.488c4.232-2.696,8.576-5.264,12.912-7.616L129.168,36.12z"
			/>
	</g>
</g>
<g>
	<g>
		<path d="M158.464,22.728c-4.992,1.872-10,3.952-14.872,6.184l6.64,14.544c4.544-2.072,9.208-4.008,13.856-5.752L158.464,22.728z"
			/>
	</g>
</g>
<g>
	<g>
		<path d="M79.536,384.616L67.648,395.32c3.576,3.976,7.352,7.872,11.2,11.592L89.96,395.4
			C86.376,391.936,82.864,388.312,79.536,384.616z"/>
	</g>
</g>
<g>
	<g>
		<path d="M24.128,248.392l-15.984,0.624c0.208,5.424,0.6,10.832,1.168,16.072l15.912-1.72
			C24.696,258.488,24.328,253.448,24.128,248.392z"/>
	</g>
</g>
<g>
	<g>
		<path d="M14.528,185.048c-1.264,5.168-2.36,10.48-3.256,15.792l15.768,2.688c0.84-4.952,1.864-9.896,3.032-14.696L14.528,185.048z
			"/>
	</g>
</g>
<g>
	<g>
		<path d="M9.12,216.816c-0.528,5.32-0.88,10.72-1.04,16.072l16,0.488c0.152-4.992,0.472-10.032,0.96-14.984L9.12,216.816z"/>
	</g>
</g>
<g>
	<g>
		<path d="M27.344,278.216l-15.752,2.816c0.928,5.232,2.072,10.536,3.384,15.76l15.52-3.896
			C29.28,288.032,28.216,283.088,27.344,278.216z"/>
	</g>
</g>
<g>
	<g>
		<path d="M34.656,307.296l-15.2,4.968c1.64,5.032,3.504,10.12,5.536,15.136l14.832-6.016
			C37.928,316.712,36.192,311.976,34.656,307.296z"/>
	</g>
</g>
<g>
	<g>
		<path d="M446.096,304.784c-1.528,4.88-3.24,9.712-5.08,14.368l14.872,5.872c1.984-5,3.824-10.192,5.472-15.44L446.096,304.784z"/>
	</g>
</g>
<g>
	<g>
		<path d="M419.84,359.64c-2.8,4.184-5.792,8.36-8.904,12.392l12.672,9.784c3.336-4.328,6.544-8.8,9.544-13.304L419.84,359.64z"/>
	</g>
</g>
<g>
	<g>
		<path d="M401.192,383.768c-3.376,3.8-6.92,7.504-10.528,11l11.144,11.488c3.88-3.776,7.688-7.76,11.336-11.848L401.192,383.768z"
			/>
	</g>
</g>
<g>
	<g>
		<path d="M455.92,244.768c-0.112,5.112-0.4,10.232-0.856,15.24L471,261.464c0.488-5.368,0.8-10.872,0.92-16.336L455.92,244.768z"/>
	</g>
</g>
<g>
	<g>
		<path d="M453.136,275.136c-0.824,4.992-1.832,10.024-3,14.968l15.56,3.688c1.264-5.296,2.352-10.704,3.224-16.064L453.136,275.136
			z"/>
	</g>
</g>
<g>
	<g>
		<path d="M434.912,333.16c-2.168,4.544-4.552,9.096-7.064,13.512l13.904,7.904c2.712-4.744,5.256-9.632,7.6-14.512L434.912,333.16z
			"/>
	</g>
</g>
<g>
	<g>
		<path d="M343.728,32.432l-7.168,14.312c4.528,2.264,9.032,4.728,13.376,7.304l8.168-13.768
			C353.432,37.512,348.592,34.864,343.728,32.432z"/>
	</g>
</g>
<g>
	<g>
		<path d="M371.888,49.128l-9.128,13.144c4.144,2.872,8.256,5.944,12.232,9.128L385,58.912
			C380.736,55.496,376.32,52.2,371.888,49.128z"/>
	</g>
</g>
<g>
	<g>
		<path d="M379.352,405.016c-3.92,3.312-7.952,6.488-11.984,9.432l9.44,12.92c4.336-3.168,8.664-6.576,12.872-10.136
			L379.352,405.016z"/>
	</g>
</g>
<g>
	<g>
		<path d="M464.232,180.288l-15.472,4.096c1.296,4.896,2.44,9.896,3.384,14.864l15.72-3
			C466.848,190.912,465.624,185.536,464.232,180.288z"/>
	</g>
</g>
<g>
	<g>
		<path d="M313.456,19.872l-5.048,15.184c4.712,1.56,9.512,3.36,14.288,5.328l6.112-14.776
			C323.688,23.488,318.528,21.56,313.456,19.872z"/>
	</g>
</g>
<g>
	<g>
		<path d="M419.84,93.456l-12.392,10.104c3.168,3.88,6.272,7.976,9.224,12.16l13.064-9.232C426.568,102,423.24,97.624,419.84,93.456
			z"/>
	</g>
</g>
<g>
	<g>
		<path d="M397.416,69.6l-10.864,11.744c3.72,3.44,7.36,7.048,10.832,10.736l11.656-10.952
			C405.32,77.168,401.408,73.288,397.416,69.6z"/>
	</g>
</g>
<g>
	<g>
		<path d="M438.68,120.192l-13.688,8.28c2.568,4.256,5.072,8.744,7.424,13.328l14.232-7.312
			C444.136,129.584,441.456,124.776,438.68,120.192z"/>
	</g>
</g>
<g>
	<g>
		<path d="M453.6,149.336l-14.728,6.248c1.976,4.656,3.816,9.448,5.464,14.224l15.128-5.2
			C457.696,159.464,455.72,154.328,453.6,149.336z"/>
	</g>
</g>
<g>
	<g>
		<path d="M470.36,212.44l-15.888,1.888c0.592,5.024,1.024,10.136,1.256,15.184l15.984-0.744
			C471.456,223.328,471,217.84,470.36,212.44z"/>
	</g>
</g>
<g>
	<g>
		<rect x="231.976" y="456" width="16" height="16"/>
	</g>
</g>
<g>
</g>
<g>
</g>
<g>
</g>
<g>
</g>
<g>
</g>
<g>
</g>
<g>
</g>
<g>
</g>
<g>
</g>
<g>
</g>
<g>
</g>
<g>
</g>
<g>
</g>
<g>
</g>
<g>
</g>
</svg>
