<?xml version="1.0" encoding="iso-8859-1"?>
<!-- Generator: Adobe Illustrator 19.0.0, SVG Export Plug-In . SVG Version: 6.00 Build 0)  -->
<svg version="1.1" id="Capa_1" xmlns="http://www.w3.org/2000/svg" xmlns:xlink="http://www.w3.org/1999/xlink" x="0px" y="0px"
	 viewBox="0 0 512 512" style="enable-background:new 0 0 512 512;" xml:space="preserve">
<g>
	<g>
		<path d="M341.73,445.962c-1.831-1.831-4.372-2.885-6.961-2.885s-5.13,1.053-6.961,2.885c-1.831,1.831-2.885,4.362-2.885,6.961
			c0,2.599,1.054,5.13,2.885,6.96c1.831,1.832,4.372,2.886,6.961,2.886s5.13-1.054,6.961-2.886c1.831-1.83,2.885-4.371,2.885-6.96
			C344.615,450.323,343.562,447.793,341.73,445.962z"/>
	</g>
</g>
<g>
	<g>
		<path d="M482.462,351.642h-82.833V203.086c0-15.646-5.816-30.612-16.376-42.142c-6.317-6.898-14.003-12.217-22.484-15.674
			c12.069-15.659,18.766-34.979,18.766-55.047C379.534,40.474,339.06,0,289.312,0s-90.222,40.474-90.222,90.223
			c0,32.865,17.434,62.375,45.342,78.285l-68.173,81.962l-68.562,48.451c-8.698,6.146-14.482,15.313-16.286,25.81
			c-1.612,9.375,0.133,18.804,4.9,26.911H29.538c-5.438,0-9.846,4.409-9.846,9.846c0,5.437,4.408,9.846,9.846,9.846h29.538v130.82
			c0,5.437,4.408,9.846,9.846,9.846c5.438,0,9.846-4.409,9.846-9.846v-130.82c0.416,0.003,160.092,0.01,160.507,0v130.82
			c0,5.437,4.408,9.846,9.846,9.846h140.659c5.438,0,9.846-4.409,9.846-9.846v-130.82h33.603v130.82
			c0,5.437,4.408,9.846,9.846,9.846s9.846-4.409,9.846-9.846v-130.82h29.538c5.438,0,9.846-4.409,9.846-9.846
			C492.308,356.051,487.9,351.642,482.462,351.642z M239.276,351.642h-67.999l51.307-36.258c0.308-0.219,0.604-0.453,0.884-0.705
			l11.635-10.413c0.359-0.321,0.695-0.669,1.003-1.041l3.169-3.809V351.642z M258.969,492.308v-29.538h46.262
			c5.438,0,9.846-4.409,9.846-9.846c0-5.437-4.408-9.846-9.846-9.846h-46.262v-71.743h120.967v120.974H258.969z M379.936,351.642
			H258.969V275.74l32.073-38.56c3.478-4.181,2.908-10.389-1.273-13.866c-4.18-3.476-10.389-2.908-13.866,1.274l-34.349,41.297
			c-0.001,0.001-0.002,0.003-0.003,0.004l-20.119,24.188l-10.673,9.552l-68.403,48.339c-3.344,2.364-7.166,3.554-10.982,3.675
			h-0.774c-6.29-0.041-12.473-2.989-16.372-8.507c-3.111-4.403-4.322-9.754-3.409-15.068c0.913-5.313,3.84-9.952,8.243-13.063
			l67.177-47.472c1.415-0.593,2.712-1.525,3.76-2.785l73.031-87.804c0.292-0.352,0.56-0.723,0.8-1.113
			c0.921-1.486,2.021-2.961,3.272-4.383c0.044-0.05,0.08-0.106,0.123-0.158c6.188-6.951,15.049-10.937,24.348-10.937
			c5.438,0,9.846-4.409,9.846-9.846c0-5.437-4.408-9.846-9.846-9.846c-12.527,0-24.55,4.515-33.961,12.559
			c-23.778-11.916-38.829-36.005-38.829-62.995c0-38.89,31.64-70.531,70.53-70.531c38.891,0,70.531,31.641,70.531,70.531
			c0,20.334-8.803,39.693-24.153,53.109c-2.963,2.591-4.099,6.695-2.89,10.441c1.21,3.745,4.533,6.409,8.451,6.776
			c22.054,2.069,38.686,20.355,38.686,42.536V351.642z"/>
	</g>
</g>
<g>
</g>
<g>
</g>
<g>
</g>
<g>
</g>
<g>
</g>
<g>
</g>
<g>
</g>
<g>
</g>
<g>
</g>
<g>
</g>
<g>
</g>
<g>
</g>
<g>
</g>
<g>
</g>
<g>
</g>
</svg>
