<svg xmlns="http://www.w3.org/2000/svg" viewBox="0 0 68 75.7"><defs><style>.cls-1{fill:#cdece0;opacity:0.5;}.cls-2{fill:#5a957f;}</style></defs><g id="Layer_2" data-name="Layer 2"><g id="Layer_1-2" data-name="Layer 1"><rect class="cls-1" width="61.04" height="61.04" rx="28.57"/><path class="cls-2" d="M68,72.7,65.37,57.54a4.31,4.31,0,0,0-3-3.42l-7-2.11A7.78,7.78,0,0,0,50,45.25c.22-.25.43-.49.61-.73a13.65,13.65,0,0,0,2.78-6h.54A2.54,2.54,0,0,0,56.43,36v-1.3a2.57,2.57,0,0,0-1.32-2.23V29.29a.86.86,0,1,0-1.71,0v3.52a4.57,4.57,0,0,0-1.14.33l-.12,0-.28.14V26.42A3.46,3.46,0,0,0,48.4,23H46a3.54,3.54,0,0,0-2.25.8l-.23.19a2.41,2.41,0,0,1-1.52.54A2.37,2.37,0,0,1,40.53,24l-.23-.19a3.56,3.56,0,0,0-2.25-.8H35.68a3.47,3.47,0,0,0-3.46,3.46v6.91L32,33.19l-.12,0a4.57,4.57,0,0,0-1.14-.33v-8.9a5,5,0,0,1,5-5H48.37a5,5,0,0,1,5,5v1.35a.86.86,0,1,0,1.71,0V23.91a6.74,6.74,0,0,0-6.74-6.74H35.72A6.75,6.75,0,0,0,29,23.91v8.51a2.56,2.56,0,0,0-1.31,2.23V36a2.54,2.54,0,0,0,2.54,2.54h.54a13.51,13.51,0,0,0,2.77,6c.19.24.39.48.62.73A7.82,7.82,0,0,0,28.72,52l-7,2.11a4.32,4.32,0,0,0-3,3.42L17.66,63.7a.86.86,0,0,0,1.69.29l1-6.16a2.61,2.61,0,0,1,1.83-2.07l6.46-1.95v1.7a4.29,4.29,0,0,0-3.26,2.7,4.14,4.14,0,0,0-.25,1.16l-.63,8a2.19,2.19,0,0,0,2.17,2.35h1.07a.86.86,0,1,0,0-1.71H26.72a.5.5,0,0,1-.34-.15.52.52,0,0,1-.12-.35l.63-8a2.73,2.73,0,0,1,.15-.7,2.58,2.58,0,0,1,2.43-1.65h.16a2.55,2.55,0,0,1,2.59,2.36l.63,8a.48.48,0,0,1-.13.35.47.47,0,0,1-.34.15H31.31a.86.86,0,0,0,0,1.71h1.07A2.16,2.16,0,0,0,34,69a2.21,2.21,0,0,0,.58-1.65l-.63-8A4.51,4.51,0,0,0,33.6,58a4.25,4.25,0,0,0-3.19-2.51V53.29l2.94-.89c.27.57.8,1.79,1.85,4.42s2.38,6.06,3.65,9.36l0,.08c.84,2.21,1.66,4.37,2.36,6.24a.86.86,0,0,0,1.61,0c.7-1.87,1.51-4,2.36-6.24l0-.08c1.26-3.3,2.58-6.7,3.64-9.36S50.47,53,50.73,52.4l3,.89v5.07a4.43,4.43,0,1,0,1.71,0V53.81l6.46,1.95a2.59,2.59,0,0,1,1.83,2.07L66.27,73a.79.79,0,0,1-.19.69.82.82,0,0,1-.65.31H18.65a.84.84,0,0,1-.65-.31.86.86,0,0,1-.19-.69l.86-5A.86.86,0,1,0,17,67.7l-.86,5a2.57,2.57,0,0,0,2.53,3H65.43a2.55,2.55,0,0,0,2.53-3ZM53.41,34.55a3.9,3.9,0,0,1,.83-.11.9.9,0,0,0,.42-.1,1.07,1.07,0,0,1,.06.31V36a.83.83,0,0,1-.83.83h-.48V34.55ZM30.68,36.78H30.2a.83.83,0,0,1-.83-.83v-1.3a.81.81,0,0,1,.06-.31.87.87,0,0,0,.42.1,3.9,3.9,0,0,1,.83.11v2.23Zm1.71,1V35.48a1.2,1.2,0,0,0,1.55-1.15V26.42a1.75,1.75,0,0,1,1.74-1.75h2.37a1.84,1.84,0,0,1,1.16.42l.23.19a4.13,4.13,0,0,0,5.2,0l.24-.19A1.8,1.8,0,0,1,46,24.67H48.4a1.76,1.76,0,0,1,1.75,1.75v7.91a1.2,1.2,0,0,0,.74,1.11,1.09,1.09,0,0,0,.46.1,1.27,1.27,0,0,0,.34,0v2.25a11.09,11.09,0,0,1-2.46,5.72,11.68,11.68,0,0,1-2.06,2l-.07.06a8.37,8.37,0,0,1-10.11,0l-.08-.06a11.27,11.27,0,0,1-2-2A11.12,11.12,0,0,1,32.39,37.74ZM47.66,51.59,42,55.78l-5.61-4.19a4.13,4.13,0,0,0,.87-2.43V47.78a10.06,10.06,0,0,0,9.49,0v1.38A4.06,4.06,0,0,0,47.66,51.59ZM35,50.63a2.32,2.32,0,0,0-1.45-.07h-.06l-3,.9a6.09,6.09,0,0,1,5-4.81v2.5A2.29,2.29,0,0,1,35,50.63Zm2.32,6.88h0c0-.11-.09-.22-.13-.33l0-.06L37,56.8v0c-.12-.32-.25-.62-.36-.92l0-.06c0-.09-.07-.17-.1-.25l0-.09a2.44,2.44,0,0,1-.1-.24l0-.06c-.05-.14-.11-.28-.16-.41l0-.11-.06-.16L36,54.32l0-.06,0,0c-.1-.24-.2-.46-.28-.68h0a2.52,2.52,0,0,0-.14-.33L35.51,53l4.83,3.61-2,.85h0l-.85.36C37.42,57.75,37.37,57.63,37.32,57.51Zm2,5.25-.51-1.32c-.27-.7-.53-1.35-.77-2l.32-.13,1.31,1.52Zm2.69,7a1.1,1.1,0,0,0-.09-.14l-1.42-3.74.8-4.39h1.39l.8,4.39C43,67.33,42.45,68.68,42.06,69.72Zm1-10H41l-1-1.12,2-.84,2,.84Zm2.17,1.7-.51,1.32-.35-1.91,1.31-1.52.31.13Zm3.28-8.24c0,.1-.09.2-.13.31l0,0-.13.33v0l-.13.3,0,.06,0,.07-.06.14-.07.17,0,.06c-.06.15-.12.3-.19.45l0,.08-.1.23,0,.09-.1.25,0,.07-.37.9v0l-.12.31,0,.06c0,.11-.09.22-.13.33h0l-.14.36-.84-.36h0l-2-.85L48.58,53C48.56,53.09,48.53,53.14,48.51,53.2Zm2.09-2.63h0a2.34,2.34,0,0,0-1.5.06,2.25,2.25,0,0,1-.59-1.47v-2.5a6,6,0,0,1,5.06,4.81Zm6.65,12.14A2.72,2.72,0,1,1,54.53,60,2.72,2.72,0,0,1,57.25,62.71Z"/></g></g></svg>